<?xml version="1.0" standalone="no"?>
<!DOCTYPE svg PUBLIC "-//W3C//DTD SVG 1.1//EN" "http://www.w3.org/Graphics/SVG/1.1/DTD/svg11.dtd" >
<svg xmlns="http://www.w3.org/2000/svg">
    <metadata></metadata>
    <defs>
        <font id="helioscompressedcregular" horiz-adv-x="950">
            <font-face units-per-em="2048" ascent="1681" descent="-367"/>
            <missing-glyph horiz-adv-x="475"/>
            <glyph horiz-adv-x="2048"/>
            <glyph horiz-adv-x="2048"/>
            <glyph unicode="&#xd;" horiz-adv-x="2048"/>
            <glyph unicode=" " horiz-adv-x="475"/>
            <glyph unicode="&#x09;" horiz-adv-x="475"/>
            <glyph unicode="&#xa0;" horiz-adv-x="475"/>
            <glyph unicode="!" horiz-adv-x="530" d="M424 428h-318v1030h318v-1030zM424 0h-318v344h318v-344z"/>
            <glyph unicode="&#x22;" horiz-adv-x="681" d="M406 903v555h245v-555h-245zM31 903v555h245v-555h-245z"/>
            <glyph unicode="#"
                   d="M313 1458h174l-47 -409h158l47 409h174l-47 -409h133l-6 -199h-149l-29 -242h129l-2 -198h-150l-47 -410h-174l47 410h-159l-46 -410h-174l48 410h-150l8 198h164l29 242h-142l7 199h157zM575 850h-157l-29 -242h160z"/>
            <glyph unicode="$"
                   d="M545 1587v-100q78 -6 141 -26.5t114 -57.5t79 -97.5t28 -140.5v-229h-340v207q0 61 -23 85.5t-69 24.5q-45 0 -67.5 -24t-22.5 -86q0 -45 29 -89.5t75 -85.5t101.5 -85.5t111 -97.5t101.5 -112t75 -139t29 -169q0 -88 -25 -157t-62 -110.5t-88 -70t-95 -40t-92 -16.5 v-123h-154v123q-155 9 -250.5 94t-95.5 236v266h340v-252q0 -62 22.5 -86t67.5 -24q46 0 69 24.5t23 85.5q0 65 -29 122.5t-75 102t-101.5 88.5t-111 92.5t-101.5 103t-75 131.5t-29 167q0 321 346 365v100h154z"/>
            <glyph unicode="%" horiz-adv-x="1290"
                   d="M848 1487h151l-557 -1516h-153zM991 821q264 0 264 -260v-301q0 -260 -264 -260t-264 260v301q0 260 264 260zM991 674q-49 0 -49 -70v-387q0 -70 49 -70t49 70v387q0 70 -49 70zM299 1458q264 0 264 -260v-301q0 -260 -264 -260t-264 260v301q0 260 264 260zM299 1311 q-49 0 -49 -70v-387q0 -70 49 -70t49 70v387q0 70 -49 70z"/>
            <glyph unicode="&#x26;" horiz-adv-x="1214"
                   d="M678 262l-295 340v-180q0 -93 39 -155t123 -62q114 0 133 57zM508 1253q-25 0 -42 -8.5t-26 -20.5t-13.5 -34t-5.5 -38t-1 -44q0 -51 21.5 -101t56.5 -79q45 0 66.5 51.5t21.5 136.5q0 33 -1.5 52t-8.5 41.5t-24 33t-44 10.5zM813 819h340v-244q0 -202 -70 -272h125v-303 h-141q-153 0 -195 57q-135 -86 -350 -86q-70 0 -135 12t-128.5 42t-110.5 74t-76 114t-29 158v104q0 62 6 108t22.5 90.5t49 77t82.5 52.5q-123 116 -123 309q0 93 26.5 162.5t67.5 109t102 64t118.5 32t127.5 7.5q32 0 63 -2t73 -10t77.5 -20.5t71.5 -35.5t61.5 -53.5 t41.5 -76t16 -101.5v-125q0 -97 -87 -172.5t-206 -93.5l160 -197h20v219z"/>
            <glyph unicode="'" horiz-adv-x="454" d="M104 903v555h246v-555h-246z"/>
            <glyph unicode="(" horiz-adv-x="606"
                   d="M258 1487h311q-123 -172 -183 -379t-60 -428q0 -212 64.5 -431t184.5 -376h-313q-111 170 -172 377t-61 422q0 225 54 417.5t175 397.5z"/>
            <glyph unicode=")" horiz-adv-x="606"
                   d="M37 1487h311q121 -205 175.5 -398t54.5 -417q0 -215 -61.5 -421.5t-172.5 -377.5h-313q120 157 185 376t65 431q0 220 -60.5 427.5t-183.5 379.5z"/>
            <glyph unicode="*"
                   d="M389 1458h170v-213l199 78l57 -164l-211 -69l148 -181l-138 -106l-141 190l-133 -190l-141 104l141 180l-207 60l57 168l199 -70v213z"/>
            <glyph unicode="+" horiz-adv-x="1228" d="M475 725v381h279v-381h381v-279h-381v-380h-279v380h-381v279h381z"/>
            <glyph unicode="," horiz-adv-x="475" d="M246 -262h-211l78 606h325z"/>
            <glyph unicode="-" horiz-adv-x="741" d="M647 446h-553v279h553v-279z"/>
            <glyph unicode="." horiz-adv-x="475" d="M395 0h-317v344h317v-344z"/>
            <glyph unicode="/" horiz-adv-x="530" d="M367 1487h159l-362 -1516h-160z"/>
            <glyph unicode="0"
                   d="M473 1253q-90 0 -90 -98v-852q0 -98 90 -98q92 0 92 98v852q0 98 -92 98zM479 1487q74 0 133.5 -11t115.5 -40t94 -76t60.5 -123t22.5 -176v-692q0 -203 -113 -300.5t-317 -97.5q-202 0 -317 98t-115 300v692q0 99 27.5 176t70.5 123t102.5 75.5t116.5 40.5t119 11z"/>
            <glyph unicode="1" d="M90 1081v213q47 0 91.5 8t88 25.5t74 51t39.5 79.5h287v-1458h-340v1081h-240z"/>
            <glyph unicode="2"
                   d="M373 938h-340v160q0 102 28.5 176t70.5 114t105.5 63.5t116.5 29.5t121 6q63 0 119.5 -10t113 -37t97.5 -69.5t66.5 -111t25.5 -157.5q0 -79 -27 -156t-70.5 -140t-97 -124t-108 -118.5t-101 -112.5t-80 -116.5t-40.5 -121.5h524v-213h-864v180q0 95 29 185.5t75 162 t102 138.5t112 127.5t102 117.5t75 118t29 120q0 104 -92 104t-92 -104v-211z"/>
            <glyph unicode="3"
                   d="M387 934h-340v209q0 80 29 143t72.5 100t102.5 60.5t111.5 32t106.5 8.5q66 0 126 -10t117 -34.5t98 -61t66 -93t25 -127.5v-92q0 -76 -14.5 -131t-44 -90.5t-66.5 -56t-88 -31.5v-10q70 -10 114.5 -35t71.5 -82t27 -148v-161q0 -92 -34 -161t-94 -110.5t-136.5 -61.5 t-167.5 -20q-422 0 -422 340v250h340v-246q0 -110 86 -110q88 0 88 110v185q0 31 -5 53.5t-17 36.5t-24 22.5t-33.5 12.5t-38.5 5t-44 1h-114v233h131q63 0 104 30t41 99v170q0 38 -24 64t-64 26q-30 0 -48 -11.5t-26 -36t-10 -47.5t-2 -62v-162z"/>
            <glyph unicode="4"
                   d="M403 1458h412v-891h113v-233h-113v-334h-317v334h-492v233zM494 1155l-263 -588h267v588h-4z"/>
            <glyph unicode="5"
                   d="M41 1458h856v-213h-532q0 -32 -7.5 -143t-7.5 -133h4q116 100 254 100t218.5 -86t80.5 -258v-340q0 -114 -36 -197t-99 -129t-137 -67t-162 -21q-118 0 -215 37.5t-157 114t-60 178.5v279h340v-263q0 -51 24.5 -81.5t67.5 -30.5t68.5 30.5t25.5 81.5v363q0 51 -25 82 t-67 31q-33 0 -63.5 -34.5t-30.5 -68.5h-340v768z"/>
            <glyph unicode="6"
                   d="M903 942h-340v182q0 62 -18.5 95.5t-71.5 33.5q-52 0 -70 -33.5t-18 -95.5v-346q59 49 113.5 72.5t124.5 23.5q122 0 201 -74t79 -208v-244q0 -81 -24.5 -146t-65 -107.5t-94 -71t-109.5 -40.5t-114 -12q-451 0 -451 412v752q0 89 38 158.5t101.5 110.5t140.5 62t162 21 q416 0 416 -363v-182zM483 608q-46 0 -72 -23t-26 -59v-258q0 -28 23.5 -45.5t68.5 -17.5q42 0 64 18.5t22 48.5v263q0 73 -80 73z"/>
            <glyph unicode="7" d="M18 1458h897v-207l-479 -1251h-362l479 1245h-535v213z"/>
            <glyph unicode="8"
                   d="M485 1487q87 0 159.5 -17t135.5 -54.5t99 -107t36 -165.5v-129q0 -84 -67.5 -155.5t-161.5 -90.5v-8q44 -10 71.5 -19t60.5 -30t52 -50t32 -79t13 -117v-125q0 -94 -35.5 -166t-98.5 -115.5t-142.5 -65.5t-173.5 -22q-201 0 -315.5 95.5t-114.5 281.5v158q0 104 65.5 172 t161.5 82v8q-94 17 -160.5 84t-66.5 176v111q0 80 29.5 143t75 100.5t107 62t119.5 33.5t119 9zM473 641q-98 0 -98 -96v-262q0 -44 27.5 -61t76.5 -17t72.5 17t23.5 61v260q0 98 -102 98zM475 1253q-50 0 -75 -26t-25 -70v-217q0 -50 24.5 -68t73.5 -18q52 0 77 18.5 t25 75.5v207q0 51 -24 74.5t-76 23.5z"/>
            <glyph unicode="9"
                   d="M45 516h340v-182q0 -62 18.5 -95.5t71.5 -33.5q52 0 70 33.5t18 95.5v346q-60 -49 -113.5 -72.5t-123.5 -23.5q-122 0 -201.5 74t-79.5 208v244q0 81 25 146t65 107.5t94 71t110 40.5t114 12q450 0 450 -412v-751q0 -89 -38 -158.5t-101.5 -111t-140.5 -62.5t-162 -21 q-416 0 -416 363v182zM465 850q46 0 72 23t26 59v258q0 28 -23.5 45.5t-68.5 17.5q-42 0 -64 -18.5t-22 -48.5v-262q0 -74 80 -74z"/>
            <glyph unicode=":" horiz-adv-x="475" d="M395 0h-317v344h317v-344zM395 827h-317v344h317v-344z"/>
            <glyph unicode=";" horiz-adv-x="475" d="M246 -262h-211l78 606h325zM395 827h-317v344h317v-344z"/>
            <glyph unicode="&#x3c;" horiz-adv-x="1228" d="M1075 319v-208l-921 389v172l921 389v-209l-639 -266z"/>
            <glyph unicode="=" horiz-adv-x="1228" d="M1135 692h-1041v279h1041v-279zM1135 201h-1041v278h1041v-278z"/>
            <glyph unicode="&#x3e;" horiz-adv-x="1228" d="M154 111v208l639 267l-639 266v209l921 -389v-172z"/>
            <glyph unicode="?"
                   d="M406 946h-318v234q0 65 22 117.5t59 87t88 58t107.5 34t118.5 10.5q379 0 379 -313v-93q0 -63 -12.5 -112.5t-33 -81t-45.5 -57.5t-49.5 -48.5t-45 -46.5t-33 -60t-12.5 -81v-162h-318v184q0 88 23.5 150t56.5 94.5t66 59t56.5 64t23.5 89.5v115q0 44 -13 67t-55 23 q-40 0 -52.5 -23t-12.5 -67v-242zM631 0h-318v344h318v-344z"/>
            <glyph unicode="@" horiz-adv-x="1638"
                   d="M791 508q90 0 146 63t56 152q0 74 -42.5 119t-114.5 45q-82 0 -138.5 -64t-56.5 -145q0 -73 40 -121.5t110 -48.5zM1051 993l18 99h188q-18 -103 -44.5 -247.5t-41 -225t-14.5 -91.5q0 -41 27 -41q71 0 127.5 81.5t56.5 232.5q0 240 -143.5 368.5t-378.5 128.5 q-245 0 -392 -160.5t-147 -416.5q0 -265 158.5 -419.5t415.5 -154.5q217 0 376 123h195q-208 -299 -588 -299q-158 0 -299.5 55.5t-246.5 152.5t-166.5 238t-61.5 304q0 161 60.5 304t163 244t243 159.5t295.5 58.5q105 0 206.5 -27.5t189.5 -81.5t155.5 -128t106 -173.5 t38.5 -210.5q0 -96 -22.5 -180t-59.5 -142.5t-85 -106t-97 -77t-98.5 -49t-87 -27.5t-64.5 -8q-44 0 -74 26.5t-34 76.5q-37 -44 -89.5 -73.5t-101.5 -29.5q-130 0 -229.5 109.5t-99.5 257.5q0 121 48.5 227.5t141.5 174t211 67.5q160 0 244 -119z"/>
            <glyph unicode="A" d="M401 580h123l-59 649h-4zM270 1458h467l189 -1458h-338l-39 358h-184l-56 -358h-286z"/>
            <glyph unicode="B"
                   d="M385 657v-448q42 0 67.5 2.5t48 12t33.5 24.5t19 43.5t10 64.5t2 93q0 40 -1.5 68.5t-7 51t-10 37t-18 25t-23 15.5t-32.5 7.5t-38.5 3t-49.5 0.5zM45 0v1458h344q79 0 121 -1t106 -8t98.5 -20t77 -38.5t63 -63t35.5 -94t15 -129.5q0 -52 -6 -95t-22.5 -84.5t-43 -71 t-69.5 -50t-100 -25.5v-14q63 0 108 -19t70.5 -48.5t40 -77.5t18.5 -93.5t4 -109.5q0 -86 -11 -149.5t-27.5 -108.5t-52.5 -74t-69.5 -46t-97 -25.5t-115.5 -10.5t-143 -2h-344zM385 1249v-383q62 0 96 7t53.5 30.5t25 57t5.5 96.5t-6 97t-26 57.5t-53.5 30.5t-94.5 7z"/>
            <glyph unicode="C"
                   d="M905 938h-340v201q0 114 -92 114q-88 0 -88 -114v-820q0 -114 88 -114q92 0 92 114v248h340v-192q0 -404 -432 -404q-71 0 -131 12t-116.5 42t-95 77.5t-62 122.5t-23.5 172v664q0 97 23.5 172t62 122.5t95 77.5t116.5 42t131 12q79 0 140.5 -10t118 -36.5t93.5 -69.5 t58.5 -112t21.5 -161v-160z"/>
            <glyph unicode="D"
                   d="M45 0v1458h350q76 0 131.5 -3.5t108.5 -13t89 -25.5t68.5 -43t52 -63t34 -87t20.5 -115t6 -147v-521q0 -73 -8 -128.5t-29 -107.5t-58 -88t-92.5 -63t-136 -40t-186.5 -13h-350zM385 1249v-1040q61 0 98 11t54.5 39.5t22.5 61t5 91.5v600q0 56 -1 86t-7.5 61.5t-17 45 t-31.5 25.5t-50 15.5t-73 3.5z"/>
            <glyph unicode="E" horiz-adv-x="761"
                   d="M45 1458h705v-221h-365v-319h352v-222h-352v-475h365v-221h-705v1458z"/>
            <glyph unicode="F" horiz-adv-x="761" d="M45 1458h705v-221h-365v-319h352v-222h-352v-696h-340v1458z"/>
            <glyph unicode="G"
                   d="M905 936h-340v203q0 114 -90 114t-90 -114v-820q0 -114 90 -114t90 114v195h-129v221h469v-735h-198l-19 74q-91 -103 -295 -103q-87 0 -149 20t-108 67.5t-68.5 131.5t-22.5 207v664q0 97 23.5 172t62.5 122.5t95.5 77.5t117 42t131.5 12q213 0 321.5 -93.5 t108.5 -303.5v-154z"/>
            <glyph unicode="H" d="M385 1458v-540h180v540h340v-1458h-340v696h-180v-696h-340v1458h340z"/>
            <glyph unicode="I" horiz-adv-x="430" d="M385 1458v-1458h-340v1458h340z"/>
            <glyph unicode="J" horiz-adv-x="935"
                   d="M551 1458h340v-1087q0 -66 -9.5 -119.5t-37.5 -107.5t-74 -90.5t-124.5 -59.5t-184.5 -23q-32 0 -65.5 3t-77 13t-81.5 25.5t-76 43.5t-65 64t-44 89.5t-17 118.5v235h340v-211q0 -36 2 -57t10 -44.5t27 -34.5t49 -11q24 0 41 8.5t26 20.5t14 34t6 39t1 45v1106z"/>
            <glyph unicode="K"
                   d="M385 1458v-661h4l215 661h324l-228 -643l230 -815h-336l-205 739h-4v-739h-340v1458h340z"/>
            <glyph unicode="L" horiz-adv-x="765" d="M385 1458v-1237h369v-221h-709v1458h340z"/>
            <glyph unicode="M" horiz-adv-x="1370"
                   d="M45 1458h500l143 -1036h4l144 1036h489v-1458h-307v1245h-4l-197 -1245h-299l-196 1245h-5v-1245h-272v1458z"/>
            <glyph unicode="N" horiz-adv-x="1048"
                   d="M45 1458h471l217 -1061h4v1061h267v-1458h-437l-252 1219h-4v-1219h-266v1458z"/>
            <glyph unicode="O"
                   d="M475 1253q-90 0 -90 -114v-820q0 -114 90 -114t90 114v820q0 114 -90 114zM475 1487q71 0 131.5 -12t117 -42t95.5 -77.5t62.5 -122.5t23.5 -172v-664q0 -97 -23.5 -172t-62.5 -122.5t-95.5 -77.5t-117 -42t-131.5 -12t-131.5 12t-117 42t-95.5 77.5t-62.5 122.5 t-23.5 172v664q0 97 23.5 172t62.5 122.5t95.5 77.5t117 42t131.5 12z"/>
            <glyph unicode="P"
                   d="M385 1249v-477h53q36 0 59 9t37 24t20.5 47.5t8.5 65.5t2 92q0 49 -1 78t-5.5 59.5t-12.5 47t-22 30.5t-35 19t-51 5h-53zM385 563v-563h-340v1458h416q108 0 184.5 -14t137.5 -48t91.5 -96.5t30.5 -154.5v-266q0 -79 -33 -141t-89.5 -99.5t-125.5 -56.5t-147 -19h-125z "/>
            <glyph unicode="Q"
                   d="M475 1253q-90 0 -90 -114v-820q0 -114 90 -114t90 114v820q0 114 -90 114zM885 -10v-252q-81 0 -131 4.5t-95.5 17.5t-70 39t-39.5 68.5t-19 105.5q-26 -2 -55 -2q-71 0 -131.5 12t-117 42t-95.5 77.5t-62.5 122.5t-23.5 172v664q0 97 23.5 172t62.5 122.5t95.5 77.5 t117 42t131.5 12t131.5 -12t117 -42t95.5 -77.5t62.5 -122.5t23.5 -172v-664q0 -276 -184 -370v-37h164z"/>
            <glyph unicode="R" horiz-adv-x="954"
                   d="M385 0h-340v1458h342q76 0 131 -2.5t112.5 -11t96 -23.5t74.5 -40t57 -61t33 -86.5t12 -115.5q0 -288 -260 -332v-4q127 0 193.5 -62.5t66.5 -211.5v-305q0 -130 51 -203h-342q-49 71 -49 203v309q0 72 -36.5 113t-86.5 41h-55v-666zM385 1249v-375q111 0 144.5 40 t33.5 149q0 55 -6 86.5t-24.5 56t-53.5 34t-94 9.5z"/>
            <glyph unicode="S"
                   d="M905 936h-340v205q0 57 -20.5 84.5t-69.5 27.5q-53 0 -71.5 -27t-18.5 -85q0 -49 28.5 -95.5t74.5 -86t101.5 -81.5t111 -91.5t101.5 -106.5t74.5 -136t28.5 -171q0 -402 -432 -402q-87 0 -159.5 16t-135 52t-98 101.5t-35.5 156.5v270h340v-252q0 -63 20.5 -86.5 t69.5 -23.5q44 0 67 24.5t23 85.5q0 67 -28.5 123.5t-74.5 99t-101.5 84.5t-111 89.5t-101.5 102t-74.5 133.5t-28.5 175q0 365 436 365q90 0 163.5 -16.5t133.5 -52.5t93.5 -100.5t33.5 -152.5v-229z"/>
            <glyph unicode="T" horiz-adv-x="872" d="M29 1458h815v-221h-238v-1237h-340v1237h-237v221z"/>
            <glyph unicode="U"
                   d="M45 1458h340v-1050q0 -57 2.5 -89t11 -61t26.5 -41t48 -12q26 0 43.5 10t27 24t14.5 43.5t6 55t1 70.5v1050h340v-1042q0 -46 -2.5 -81.5t-12 -84t-26.5 -85t-49.5 -75t-77 -63t-112 -40.5t-152.5 -16q-87 0 -156 18t-113 44t-75.5 69.5t-47.5 80.5t-24.5 92t-10 88.5 t-1.5 85.5v1009z"/>
            <glyph unicode="V" d="M16 1458h365l82 -1124h4l149 1124h318l-246 -1458h-446z"/>
            <glyph unicode="W" horiz-adv-x="1443"
                   d="M8 1458h348l72 -1038h4l131 1038h369l92 -1038h4l107 1038h301l-191 -1458h-397l-131 1124h-4l-121 -1124h-391z"/>
            <glyph unicode="X"
                   d="M18 1458h371l117 -579h4l115 579h309l-203 -723l203 -735h-361l-116 584h-4l-127 -584h-310l205 782z"/>
            <glyph unicode="Y" d="M16 1458h332l125 -579h4l125 579h332l-289 -921v-537h-340v537z"/>
            <glyph unicode="Z" horiz-adv-x="757" d="M10 1458h738v-215l-398 -1022h398v-221h-738v250l381 987h-381v221z"/>
            <glyph unicode="[" horiz-adv-x="606" d="M57 1487h490v-230h-207v-1155h209v-229h-492v1614z"/>
            <glyph unicode="\" horiz-adv-x="569" d="M-98 1487h159l607 -1516h-160z"/>
            <glyph unicode="]" horiz-adv-x="606" d="M59 1487h490v-1614h-492v229h209v1155h-207v230z"/>
            <glyph unicode="^" horiz-adv-x="1228" d="M506 1458h217l356 -747h-239l-226 508l-227 -508h-237z"/>
            <glyph unicode="_" horiz-adv-x="1024" d="M1024 -201h-1024v140h1024v-140z"/>
            <glyph unicode="`" horiz-adv-x="417" d="M356 1309h-137l-299 288h236z"/>
            <glyph unicode="a" horiz-adv-x="872"
                   d="M504 592q-11 -8 -37.5 -25t-38.5 -26.5t-28.5 -27t-23.5 -38.5t-7 -47v-127q0 -29 17 -45t42 -16q48 0 62 32t14 117v203zM369 758h-324v108q0 85 33 149t90 100t124 53.5t144 17.5t144 -17.5t124 -53.5t90 -100t33 -149v-866h-323v137h-4q-33 -71 -85.5 -111t-142.5 -40 q-107 0 -167 62.5t-60 176.5v174q0 62 25.5 111.5t66 82t89 59t97.5 49.5t89.5 47.5t66 59.5t25.5 79q0 86 -68 86q-67 0 -67 -86v-129z"/>
            <glyph unicode="b" horiz-adv-x="872"
                   d="M436 920q-30 0 -48.5 -21.5t-18.5 -58.5v-508q0 -37 18.5 -58.5t48.5 -21.5t49 21.5t19 58.5v508q0 37 -19 58.5t-49 21.5zM369 1458v-446h4q22 81 81.5 127.5t147.5 46.5q117 0 171 -70t54 -190v-647q0 -57 -11.5 -106t-36.5 -92.5t-72 -69t-111 -25.5q-201 0 -223 161 h-4v-147h-324v1458h324z"/>
            <glyph unicode="c" horiz-adv-x="872"
                   d="M827 758h-323v133q0 82 -68 82q-67 0 -67 -82v-610q0 -82 67 -82q68 0 68 82v182h323v-172q0 -158 -105 -231.5t-288 -73.5q-187 0 -288 80t-101 245v547q0 147 104 237.5t285 90.5q83 0 150.5 -16.5t123.5 -53.5t87.5 -103t31.5 -157v-98z"/>
            <glyph unicode="d" horiz-adv-x="872"
                   d="M436 920q-30 0 -48.5 -21.5t-18.5 -58.5v-508q0 -37 18.5 -58.5t48.5 -21.5t49 21.5t19 58.5v508q0 37 -19 58.5t-49 21.5zM827 1458v-1458h-323v147h-4q-22 -161 -224 -161q-64 0 -111 25.5t-72 69t-36.5 92.5t-11.5 106v647q0 120 54 190t171 70q88 0 148 -46.5 t82 -127.5h4v446h323z"/>
            <glyph unicode="e" horiz-adv-x="872"
                   d="M827 549h-458v-238q0 -53 17.5 -82.5t49.5 -29.5q68 0 68 112v152h323v-172q0 -158 -105 -231.5t-286 -73.5q-108 0 -194 31.5t-141.5 103.5t-55.5 176v559q0 159 101 244.5t290 85.5q82 0 149 -16.5t123 -53t87.5 -103t31.5 -157.5v-307zM369 743h135v160q0 70 -68 70 q-67 0 -67 -70v-160z"/>
            <glyph unicode="f" horiz-adv-x="530"
                   d="M502 1458v-213q-56 0 -74 -17.5t-18 -56.5h92v-213h-92v-958h-324v958h-72v213h72v76q0 36 12 71.5t36 67.5t65.5 52t95.5 20h207z"/>
            <glyph unicode="g" horiz-adv-x="872"
                   d="M436 920q-67 0 -67 -89v-335q0 -88 67 -88q66 0 66 90v333q0 89 -66 89zM502 1171h325v-1058q0 -93 -28.5 -163.5t-70 -109.5t-99 -63.5t-104.5 -31.5t-97 -7q-177 0 -280 74t-103 174v114h324v-77q0 -72 67 -72q66 0 66 72v290h-4q-7 -75 -63 -123.5t-134 -48.5 q-256 0 -256 295v479q0 132 60.5 201.5t150.5 69.5q94 0 150 -41t92 -125h4v151z"/>
            <glyph unicode="h" horiz-adv-x="872"
                   d="M45 1458h324v-432h4q52 160 229 160q225 0 225 -279v-907h-323v793q0 30 -1.5 47.5t-7.5 38.5t-20.5 31t-38.5 10q-19 0 -32 -8t-20 -18t-10.5 -29.5t-4 -33.5t-0.5 -38v-793h-324v1458z"/>
            <glyph unicode="i" horiz-adv-x="417" d="M371 1171v-1171h-324v1171h324zM371 1251h-324v207h324v-207z"/>
            <glyph unicode="j" horiz-adv-x="417"
                   d="M47 1171h324v-1198q0 -130 -56.5 -182.5t-187.5 -52.5h-225v213h43q61 0 81.5 24.5t20.5 106.5v1089zM47 1458h324v-207h-324v207z"/>
            <glyph unicode="k" horiz-adv-x="872"
                   d="M369 1458v-821h4l166 534h313l-186 -524l202 -647h-329l-166 612h-4v-612h-324v1458h324z"/>
            <glyph unicode="l" horiz-adv-x="417" d="M371 1458v-1458h-324v1458h324z"/>
            <glyph unicode="m" horiz-adv-x="1290"
                   d="M360 1171v-155h5q51 170 225 170q176 0 211 -170h4q13 77 74.5 123.5t148.5 46.5q213 0 213 -248v-938h-311v813q0 23 -2 39t-8 33t-20 26t-36 9q-18 0 -30 -6.5t-18.5 -16t-10 -25.5t-4 -28t-0.5 -31v-813h-312v813q0 23 -2 38.5t-7.5 33t-19.5 26.5t-36 9t-35.5 -8.5 t-19.5 -26.5t-7.5 -33t-1.5 -39v-813h-311v1171h311z"/>
            <glyph unicode="n" horiz-adv-x="872"
                   d="M369 1171v-145h4q49 160 235 160q107 0 163 -70t56 -198v-918h-323v813q0 23 -2 39t-8 33t-20 26t-36 9q-41 0 -55 -29.5t-14 -77.5v-813h-324v1171h324z"/>
            <glyph unicode="o" horiz-adv-x="872"
                   d="M436 973q-67 0 -67 -82v-610q0 -82 67 -82q68 0 68 82v610q0 82 -68 82zM436 1186q189 0 290 -85.5t101 -244.5v-559q0 -104 -55.5 -176t-141.5 -103.5t-194 -31.5t-194 31.5t-141.5 103.5t-55.5 176v559q0 159 101 244.5t290 85.5z"/>
            <glyph unicode="p" horiz-adv-x="872"
                   d="M436 920q-30 0 -48.5 -21.5t-18.5 -58.5v-508q0 -37 18.5 -58.5t48.5 -21.5t49 21.5t19 58.5v508q0 37 -19 58.5t-49 21.5zM45 1171h324v-153h4q22 168 223 168q64 0 110.5 -25.5t72 -69.5t37 -94.5t11.5 -109.5v-647q0 -116 -54 -185t-171 -69q-89 0 -148 44t-81 124h-4 v-416h-324v1433z"/>
            <glyph unicode="q" horiz-adv-x="872"
                   d="M436 920q-30 0 -48.5 -21.5t-18.5 -58.5v-508q0 -37 18.5 -58.5t48.5 -21.5t49 21.5t19 58.5v508q0 37 -19 58.5t-49 21.5zM827 1171v-1433h-323v416h-4q-22 -80 -81.5 -124t-148.5 -44q-117 0 -171 69t-54 185v647q0 59 11.5 109.5t37 94.5t72 69.5t110.5 25.5 q202 0 224 -168h4v153h323z"/>
            <glyph unicode="r" horiz-adv-x="872"
                   d="M369 1171v-153h6q71 168 233 168q115 0 167 -64.5t52 -165.5v-417h-323v284q0 97 -68 97q-67 0 -67 -97v-823h-324v1171h324z"/>
            <glyph unicode="s" horiz-adv-x="872"
                   d="M821 758h-317v127q0 88 -68 88q-67 0 -67 -88q0 -40 25 -73t65 -57t88 -48.5t96 -56t88 -70.5t65 -101t25 -139q0 -174 -103.5 -264t-305.5 -90q-80 0 -145 16t-115.5 49.5t-78.5 90.5t-28 134v187h324v-176q0 -88 67 -88q68 0 68 88q0 56 -25.5 99t-66 70.5t-89.5 52.5 t-97.5 54t-89 65t-66 95.5t-25.5 136.5q0 166 104 246t275 80q189 0 293 -73t104 -218v-137z"/>
            <glyph unicode="t" horiz-adv-x="606"
                   d="M125 1382h324v-211h141v-213h-141v-639q0 -32 1.5 -47t8.5 -31.5t23 -22t44 -5.5h64v-213h-264q-115 0 -158 60t-43 184v714h-109v213h109v211z"/>
            <glyph unicode="u" horiz-adv-x="872"
                   d="M45 1171h324v-813q0 -18 1 -31t4.5 -28t10 -24.5t19 -16t30.5 -6.5q70 0 70 106v813h323v-1171h-323v145h-4q-48 -159 -236 -159q-107 0 -163 70t-56 198v917z"/>
            <glyph unicode="v" horiz-adv-x="872" d="M23 1171h327l109 -909h4l108 909h279l-211 -1171h-393z"/>
            <glyph unicode="w" horiz-adv-x="1366"
                   d="M10 1171h324l86 -905h4l102 905h359l108 -905h4l72 905h285l-168 -1171h-395l-107 934h-4l-107 -934h-383z"/>
            <glyph unicode="x" horiz-adv-x="872"
                   d="M20 1171h334l101 -452h4l100 452h289l-191 -561l207 -610h-340l-112 498h-4l-113 -498h-287l197 610z"/>
            <glyph unicode="y" horiz-adv-x="872"
                   d="M25 1171h327l109 -809h4l108 809h273l-262 -1234q-22 -99 -88.5 -149t-173.5 -50h-261v213h168q32 0 45 7.5t13 25.5q0 11 -8 51z"/>
            <glyph unicode="z" horiz-adv-x="681" d="M6 1171h660v-180l-314 -778h324v-213h-670v213l301 745h-301v213z"/>
            <glyph unicode="{" horiz-adv-x="681"
                   d="M625 1487v-156h-23q-39 0 -65 -10t-36.5 -28.5t-14 -34.5t-3.5 -39v-363q0 -47 -29 -81t-74.5 -51t-82.5 -24.5t-72 -9.5v-4q43 -3 77 -9t69 -19.5t58.5 -32.5t38.5 -50t15 -71v-365q0 -21 3.5 -37t14 -34.5t36.5 -28.5t65 -10h23v-156h-152q-27 0 -61 8.5t-71.5 28 t-68.5 46.5t-51 67.5t-20 87.5v370q0 39 -11.5 64t-35.5 36.5t-44 15t-53 5.5v170q144 0 144 121v356q0 58 30 106.5t74.5 75.5t88.5 41.5t79 14.5h152z"/>
            <glyph unicode="|" horiz-adv-x="454" d="M88 0v1458h279v-1458h-279z"/>
            <glyph unicode="}" horiz-adv-x="681"
                   d="M57 1331v156h152q35 0 79 -14.5t88.5 -41.5t74.5 -75.5t30 -106.5v-356q0 -39 11.5 -64t35.5 -36.5t44 -15t53 -5.5v-170q-144 0 -144 -121v-370q0 -47 -20 -87.5t-51 -67.5t-68.5 -46.5t-71.5 -28t-61 -8.5h-152v156h23q39 0 65 10t36.5 28.5t14 34.5t3.5 37v365 q0 89 71 133t187 49v4q-109 7 -183.5 48.5t-74.5 117.5v363q0 23 -3.5 39t-14 34.5t-36.5 28.5t-65 10h-23z"/>
            <glyph unicode="~" horiz-adv-x="1228"
                   d="M1014 709l73 -197q-23 -32 -38.5 -52t-41 -46.5t-49.5 -41t-57 -25.5t-70 -11q-50 0 -95 14.5t-81 35t-73 40.5t-87 34.5t-108 14.5q-105 0 -172 -147l-74 196q92 176 256 176q57 0 123.5 -21.5t115.5 -48t104.5 -48t93.5 -21.5q29 0 55 11.5t49.5 36.5t38 45t37.5 55z "/>
            <glyph unicode="&#xa3;"
                   d="M63 -27l-24 209q135 84 135 303q0 73 -20 158h-136v160h91q-48 163 -48 256q0 229 99 328.5t329 99.5q123 0 203 -27t124.5 -88.5t61.5 -143t17 -206.5h-320v57q0 88 -17 131t-71 43q-56 0 -74 -40.5t-18 -129.5q0 -42 7 -88t20 -105.5t18 -86.5h222v-160h-201 q0 -281 -123 -397v-4q70 18 127 18q49 0 139 -19.5t127 -19.5q93 0 176 39l25 -237q-30 -20 -94 -36t-103 -16q-86 0 -221.5 34t-210.5 34q-115 0 -240 -66z"/>
            <glyph unicode="&#xa9;" horiz-adv-x="1638"
                   d="M819 -29q-124 0 -240.5 32t-216.5 96.5t-175 154.5t-117.5 212t-42.5 263t42.5 263t117.5 212t175 154.5t216.5 96.5t240.5 32q123 0 239.5 -32t217 -96.5t175.5 -154t118 -212t43 -263.5t-43 -263.5t-118 -212t-175.5 -154t-217 -96.5t-239.5 -32zM1360 729 q0 124 -43.5 231.5t-117 181t-172.5 115t-208 41.5q-111 0 -210 -41.5t-172 -115t-115.5 -180.5t-42.5 -232q0 -124 42.5 -231t115 -180.5t172 -115.5t210.5 -42q109 0 208 42t172.5 115.5t117 180.5t43.5 231zM1208 860h-186q-4 65 -51 97t-121 32q-86 0 -139.5 -69 t-53.5 -181q0 -107 54 -178.5t139 -71.5q74 0 121 32t51 97h195q-22 -151 -124.5 -234t-242.5 -83q-188 0 -305 124t-117 310q0 192 114 315.5t304 123.5q142 0 240 -81.5t122 -232.5z"/>
            <glyph unicode="&#xab;" horiz-adv-x="757"
                   d="M727 203l-309 311v274l309 312v-295l-154 -154l154 -153v-295zM340 203l-309 311v274l309 312v-295l-154 -154l154 -153v-295z"/>
            <glyph unicode="&#xad;" horiz-adv-x="741" d="M647 446h-553v279h553v-279z"/>
            <glyph unicode="&#xae;" horiz-adv-x="1638"
                   d="M819 -29q-124 0 -240.5 32t-216.5 96.5t-175 154t-117.5 211.5t-42.5 262q0 141 42.5 263.5t117.5 212.5t175 154.5t216.5 97t240.5 32.5q123 0 239.5 -32.5t217 -97t175.5 -154.5t118 -212.5t43 -263.5q0 -174 -66 -319t-177 -239.5t-253 -146t-297 -51.5zM1360 727 q0 124 -43.5 232t-117 181.5t-172.5 115.5t-208 42q-111 0 -210 -42t-172 -115.5t-115.5 -181t-42.5 -232.5q0 -124 42.5 -230.5t115.5 -180t172 -115t210 -41.5q109 0 208 41.5t172.5 114.5t117 180t43.5 231zM696 662v-343h-190v820h311q175 0 261.5 -55t86.5 -195 q0 -110 -58.5 -159.5t-172.5 -55.5l211 -355h-191l-188 343h-70zM696 991v-182h160q58 0 84.5 19.5t26.5 70.5q0 52 -26 72t-83 20h-162z"/>
            <glyph unicode="&#xbb;" horiz-adv-x="757"
                   d="M418 203v295l153 153l-153 154v295l309 -312v-274zM31 203v295l153 153l-153 154v295l309 -312v-274z"/>
            <glyph unicode="&#x401;" horiz-adv-x="761"
                   d="M45 1458h705v-221h-365v-319h352v-222h-352v-475h365v-221h-705v1458zM668 1567h-230v252h230v-252zM328 1567h-230v252h230v-252z"/>
            <glyph unicode="&#x402;" horiz-adv-x="1171"
                   d="M29 1458h850v-221h-273v-397q97 32 180 32q64 0 113 -11.5t93 -41t72.5 -78t45 -125t16.5 -178.5q0 -82 -10 -146.5t-35 -120.5t-65 -92.5t-103 -57.5t-147 -21h-107v209q35 0 56.5 7.5t36.5 23t22 51t9.5 80t2.5 121.5q0 81 -21.5 114t-72.5 33q-56 0 -86 -18v-621h-340 v1237h-237v221z"/>
            <glyph unicode="&#x403;" horiz-adv-x="765"
                   d="M45 1458h709v-221h-369v-1237h-340v1458zM473 1618h-151l221 317h260z"/>
            <glyph unicode="&#x404;"
                   d="M565 567h340v-192q0 -404 -432 -404q-71 0 -131 12t-116.5 42t-95 77.5t-62 122.5t-23.5 172v664q0 97 23.5 172t62 122.5t95 77.5t116.5 42t131 12q79 0 140.5 -10t118 -36.5t93.5 -69.5t58.5 -112t21.5 -161v-162h-340v203q0 114 -92 114q-88 0 -88 -114v-262h147v-222 h-147v-336q0 -114 88 -114q92 0 92 114v248z"/>
            <glyph unicode="&#x405;"
                   d="M905 936h-340v205q0 57 -20.5 84.5t-69.5 27.5q-53 0 -71.5 -27t-18.5 -85q0 -49 28.5 -95.5t74.5 -86t101.5 -81.5t111 -91.5t101.5 -106.5t74.5 -136t28.5 -171q0 -402 -432 -402q-87 0 -159.5 16t-135 52t-98 101.5t-35.5 156.5v270h340v-252q0 -63 20.5 -86.5 t69.5 -23.5q44 0 67 24.5t23 85.5q0 67 -28.5 123.5t-74.5 99t-101.5 84.5t-111 89.5t-101.5 102t-74.5 133.5t-28.5 175q0 365 436 365q90 0 163.5 -16.5t133.5 -52.5t93.5 -100.5t33.5 -152.5v-229z"/>
            <glyph unicode="&#x406;" horiz-adv-x="430" d="M385 1458v-1458h-340v1458h340z"/>
            <glyph unicode="&#x407;" horiz-adv-x="430"
                   d="M385 0h-340v1458h340v-1458zM500 1567h-230v252h230v-252zM160 1567h-230v252h230v-252z"/>
            <glyph unicode="&#x408;" horiz-adv-x="935"
                   d="M551 1458h340v-1087q0 -66 -9.5 -119.5t-37.5 -107.5t-74 -90.5t-124.5 -59.5t-184.5 -23q-32 0 -65.5 3t-77 13t-81.5 25.5t-76 43.5t-65 64t-44 89.5t-17 118.5v235h340v-211q0 -36 2 -57t10 -44.5t27 -34.5t49 -11q24 0 41 8.5t26 20.5t14 34t6 39t1 45v1106z"/>
            <glyph unicode="&#x409;" horiz-adv-x="1525"
                   d="M182 1458h779v-573h155q66 0 116 -9.5t99 -38.5t80 -77t50.5 -129.5t19.5 -192.5q0 -104 -18.5 -182t-50 -126t-79 -78t-98.5 -41t-115 -11h-499v1237h-152v-883q0 -171 -63.5 -262.5t-188.5 -91.5h-192v221h65q55 0 73.5 21t18.5 84v1132zM961 676v-467h53q36 0 59 8 t37 22t20.5 45t8.5 63t2 91t-2 92t-8.5 65.5t-20.5 47.5t-37 24t-59 9h-53z"/>
            <glyph unicode="&#x40a;" horiz-adv-x="1470"
                   d="M385 1458v-573h180v573h340v-573h156q66 0 116 -9.5t98.5 -38.5t80 -77t50.5 -129.5t19 -192.5q0 -104 -18.5 -182t-50 -126t-78.5 -78t-98 -41t-115 -11h-500v676h-180v-676h-340v1458h340zM905 676v-467h53q36 0 59 8t37 22t20.5 45t8.5 63t2 91t-2 92t-8.5 65.5 t-20.5 47.5t-37 24t-59 9h-53z"/>
            <glyph unicode="&#x40b;" horiz-adv-x="1171"
                   d="M29 1458h850v-221h-273v-397q97 32 180 32q163 0 251.5 -77.5t88.5 -264.5v-530h-340v492q0 81 -21.5 114t-72.5 33q-56 0 -86 -18v-621h-340v1237h-237v221z"/>
            <glyph unicode="&#x40c;"
                   d="M385 1458v-661h4l215 661h324l-228 -643l230 -815h-336l-205 739h-4v-739h-340v1458h340zM557 1618h-151l221 317h260z"/>
            <glyph unicode="&#x40e;" horiz-adv-x="923"
                   d="M0 1458h344l121 -614l143 614h316l-439 -1458h-292l100 354zM229 1819h107q19 -113 182 -113q60 0 104.5 27t55.5 86h108q0 -134 -79.5 -203.5t-208.5 -69.5q-116 0 -192.5 73.5t-76.5 199.5z"/>
            <glyph unicode="&#x40f;" d="M385 1458v-1237h180v1237h340v-1458h-323v-281h-213v281h-324v1458h340z"/>
            <glyph unicode="&#x410;"
                   d="M401 580h123l-59 649h-4zM270 1458h467l189 -1458h-338l-39 358h-184l-56 -358h-286z"/>
            <glyph unicode="&#x411;"
                   d="M385 676v-467h53q36 0 59 8t37 22t20.5 45t8.5 63t2 91t-2 92t-8.5 65.5t-20.5 47.5t-37 24t-59 9h-53zM45 1458h760v-209h-420v-364h156q66 0 116 -9.5t98.5 -38.5t80 -77t50.5 -129.5t19 -192.5q0 -104 -18.5 -182t-50 -126t-78.5 -78t-98 -41t-115 -11h-500v1458z"/>
            <glyph unicode="&#x412;"
                   d="M385 657v-448q42 0 67.5 2.5t48 12t33.5 24.5t19 43.5t10 64.5t2 93q0 40 -1.5 68.5t-7 51t-10 37t-18 25t-23 15.5t-32.5 7.5t-38.5 3t-49.5 0.5zM45 0v1458h344q79 0 121 -1t106 -8t98.5 -20t77 -38.5t63 -63t35.5 -94t15 -129.5q0 -52 -6 -95t-22.5 -84.5t-43 -71 t-69.5 -50t-100 -25.5v-14q63 0 108 -19t70.5 -48.5t40 -77.5t18.5 -93.5t4 -109.5q0 -86 -11 -149.5t-27.5 -108.5t-52.5 -74t-69.5 -46t-97 -25.5t-115.5 -10.5t-143 -2h-344zM385 1249v-383q62 0 96 7t53.5 30.5t25 57t5.5 96.5t-6 97t-26 57.5t-53.5 30.5t-94.5 7z"/>
            <glyph unicode="&#x413;" horiz-adv-x="765" d="M45 1458h709v-221h-369v-1237h-340v1458z"/>
            <glyph unicode="&#x414;" horiz-adv-x="1036"
                   d="M164 1458h778v-1237h70v-502h-318v281h-352v-281h-317v502h69q40 135 55 278.5t15 381.5v577zM602 1237h-151v-375q0 -217 -16.5 -367t-59.5 -274h227v1016z"/>
            <glyph unicode="&#x415;" horiz-adv-x="761"
                   d="M45 1458h705v-221h-365v-319h352v-222h-352v-475h365v-221h-705v1458z"/>
            <glyph unicode="&#x416;" horiz-adv-x="1470"
                   d="M565 1458h340v-661h4l215 661h324l-227 -643l229 -815h-336l-205 739h-4v-739h-340v739h-4l-205 -739h-336l230 815l-227 643h323l215 -661h4v661z"/>
            <glyph unicode="&#x417;" horiz-adv-x="944"
                   d="M385 934h-340v209q0 80 29 143t72.5 100t102.5 60.5t111.5 32t106.5 8.5q66 0 126 -10t117 -34.5t98 -61t66 -93t25 -127.5v-92q0 -76 -14.5 -131t-44 -90.5t-66.5 -56t-88 -31.5v-10q70 -10 114.5 -35t71.5 -82t27 -148v-161q0 -92 -34 -161t-94 -110.5t-136.5 -61.5 t-167.5 -20q-422 0 -422 340v250h340v-246q0 -110 86 -110q88 0 88 110v209q0 46 -8 73t-29.5 39.5t-43.5 15.5t-64 3v222q85 0 115 27t30 102v157q0 38 -24 64t-64 26q-29 0 -47 -11.5t-26 -36t-10.5 -48t-2.5 -61.5v-162z"/>
            <glyph unicode="&#x418;" horiz-adv-x="968"
                   d="M45 1458h307v-831h2l234 831h336v-1458h-308v840h-2l-237 -840h-332v1458z"/>
            <glyph unicode="&#x419;" horiz-adv-x="968"
                   d="M45 1458h307v-831h2l234 831h336v-1458h-308v840h-2l-237 -840h-332v1458zM211 1819h106q19 -113 183 -113q60 0 104 27t55 86h109q0 -134 -80 -203.5t-209 -69.5q-116 0 -192 73.5t-76 199.5z"/>
            <glyph unicode="&#x41a;"
                   d="M385 1458v-661h4l215 661h324l-228 -643l230 -815h-336l-205 739h-4v-739h-340v1458h340z"/>
            <glyph unicode="&#x41b;" horiz-adv-x="1005"
                   d="M182 1458h779v-1458h-340v1237h-152v-883q0 -171 -63.5 -262.5t-188.5 -91.5h-192v221h65q55 0 73.5 21t18.5 84v1132z"/>
            <glyph unicode="&#x41c;" horiz-adv-x="1370"
                   d="M45 1458h500l143 -1036h4l144 1036h489v-1458h-307v1245h-4l-197 -1245h-299l-196 1245h-5v-1245h-272v1458z"/>
            <glyph unicode="&#x41d;" d="M385 1458v-540h180v540h340v-1458h-340v696h-180v-696h-340v1458h340z"/>
            <glyph unicode="&#x41e;"
                   d="M475 1253q-90 0 -90 -114v-820q0 -114 90 -114t90 114v820q0 114 -90 114zM475 1487q71 0 131.5 -12t117 -42t95.5 -77.5t62.5 -122.5t23.5 -172v-664q0 -97 -23.5 -172t-62.5 -122.5t-95.5 -77.5t-117 -42t-131.5 -12t-131.5 12t-117 42t-95.5 77.5t-62.5 122.5 t-23.5 172v664q0 97 23.5 172t62.5 122.5t95.5 77.5t117 42t131.5 12z"/>
            <glyph unicode="&#x41f;" d="M45 1458h860v-1458h-340v1237h-180v-1237h-340v1458z"/>
            <glyph unicode="&#x420;"
                   d="M385 1249v-477h53q36 0 59 9t37 24t20.5 47.5t8.5 65.5t2 92q0 49 -1 78t-5.5 59.5t-12.5 47t-22 30.5t-35 19t-51 5h-53zM385 563v-563h-340v1458h416q108 0 184.5 -14t137.5 -48t91.5 -96.5t30.5 -154.5v-266q0 -79 -33 -141t-89.5 -99.5t-125.5 -56.5t-147 -19h-125z "/>
            <glyph unicode="&#x421;"
                   d="M905 938h-340v201q0 114 -92 114q-88 0 -88 -114v-820q0 -114 88 -114q92 0 92 114v248h340v-192q0 -404 -432 -404q-71 0 -131 12t-116.5 42t-95 77.5t-62 122.5t-23.5 172v664q0 97 23.5 172t62 122.5t95 77.5t116.5 42t131 12q79 0 140.5 -10t118 -36.5t93.5 -69.5 t58.5 -112t21.5 -161v-160z"/>
            <glyph unicode="&#x422;" horiz-adv-x="872" d="M29 1458h815v-221h-238v-1237h-340v1237h-237v221z"/>
            <glyph unicode="&#x423;" horiz-adv-x="923" d="M0 1458h344l121 -614l143 614h316l-439 -1458h-292l100 354z"/>
            <glyph unicode="&#x424;" horiz-adv-x="1417"
                   d="M555 1458h307v-164q149 0 241.5 -21t155.5 -77.5t88 -151.5t25 -247v-199q0 -73 -8 -128.5t-29 -107.5t-58 -88t-92.5 -63t-136 -40t-186.5 -13v-158h-307v158q-106 0 -186.5 13t-136 40t-92.5 63t-58 88t-29 107.5t-8 128.5v199q0 103 11 178t37 131t63.5 91.5t97 57.5 t131 30.5t170.5 8.5v164zM862 1085v-718h43q72 0 99.5 55.5t27.5 187.5v242q0 134 -28 183.5t-99 49.5h-43zM555 367v718h-43q-71 0 -99 -49.5t-28 -183.5v-242q0 -132 27.5 -187.5t99.5 -55.5h43z"/>
            <glyph unicode="&#x425;"
                   d="M18 1458h371l117 -579h4l115 579h309l-203 -723l203 -735h-361l-116 584h-4l-127 -584h-310l205 782z"/>
            <glyph unicode="&#x426;" horiz-adv-x="989"
                   d="M385 1458v-1237h180v1237h340v-1237h72v-502h-320v281h-612v1458h340z"/>
            <glyph unicode="&#x427;"
                   d="M45 1458h340v-422q0 -81 21.5 -114t72.5 -33q56 0 86 18v551h340v-1458h-340v688q-100 -33 -180 -33q-163 0 -251.5 77.5t-88.5 264.5v461z"/>
            <glyph unicode="&#x428;" horiz-adv-x="1470"
                   d="M385 1458v-1237h180v1237h340v-1237h180v1237h340v-1458h-1380v1458h340z"/>
            <glyph unicode="&#x429;" horiz-adv-x="1511"
                   d="M385 1458v-1237h180v1237h340v-1237h180v1237h340v-1237h70v-502h-317v281h-1133v1458h340z"/>
            <glyph unicode="&#x42a;" horiz-adv-x="1077"
                   d="M512 676v-467h53q36 0 59 8t37 22t20.5 45t8.5 63t2 91t-2 92t-8.5 65.5t-20.5 47.5t-37 24t-59 9h-53zM512 1458v-573h156q66 0 116 -9.5t98.5 -38.5t80 -77t50.5 -129.5t19 -192.5q0 -104 -18.5 -182t-50 -126t-78.5 -78t-98 -41t-115 -11h-500v1249h-176v209h516z"/>
            <glyph unicode="&#x42b;" horiz-adv-x="1423"
                   d="M385 676v-467h53q36 0 59 8t37 22t20.5 45t8.5 63t2 91t-2 92t-8.5 65.5t-20.5 47.5t-37 24t-59 9h-53zM385 1458v-573h156q66 0 116 -9.5t98.5 -38.5t80 -77t50.5 -129.5t19 -192.5q0 -104 -18.5 -182t-50 -126t-78.5 -78t-98 -41t-115 -11h-500v1458h340zM1378 0h-340 v1458h340v-1458z"/>
            <glyph unicode="&#x42c;"
                   d="M385 676v-467h53q36 0 59 8t37 22t20.5 45t8.5 63t2 91t-2 92t-8.5 65.5t-20.5 47.5t-37 24t-59 9h-53zM385 1458v-573h156q66 0 116 -9.5t98.5 -38.5t80 -77t50.5 -129.5t19 -192.5q0 -104 -18.5 -182t-50 -126t-78.5 -78t-98 -41t-115 -11h-500v1458h340z"/>
            <glyph unicode="&#x42d;"
                   d="M385 936h-340v162q0 92 21.5 161t58.5 112t93.5 69.5t118 36.5t140.5 10q71 0 131 -12t116.5 -42t95 -77.5t62 -122.5t23.5 -172v-664q0 -97 -23.5 -172t-62 -122.5t-95 -77.5t-116.5 -42t-131 -12q-432 0 -432 404v192h340v-248q0 -114 92 -114q88 0 88 114v336h-147 v222h147v262q0 114 -88 114q-92 0 -92 -114v-203z"/>
            <glyph unicode="&#x42e;" horiz-adv-x="1417"
                   d="M385 1458v-581h127v184q0 97 23.5 172t62.5 122.5t95.5 77.5t117 42t131.5 12t131.5 -12t117 -42t95.5 -77.5t62.5 -122.5t23.5 -172v-664q0 -97 -23.5 -172t-62.5 -122.5t-95.5 -77.5t-117 -42t-131.5 -12t-131.5 12t-117 42t-95.5 77.5t-62.5 122.5t-23.5 172v258h-127 v-655h-340v1458h340zM852 1139v-820q0 -114 90 -114t90 114v820q0 114 -90 114t-90 -114z"/>
            <glyph unicode="&#x42f;"
                   d="M565 797v452h-53q-37 0 -59.5 -6.5t-36.5 -18.5t-20.5 -41t-8.5 -60t-2 -89q0 -59 2 -91.5t8.5 -65t20.5 -47.5t37 -24t59 -9h53zM905 1458v-1458h-340v588h-24l-166 -588h-365l236 618q-42 20 -73 45t-62.5 70.5t-48.5 121t-17 177.5q0 121 29 205.5t85 132t128 68 t168 20.5h450z"/>
            <glyph unicode="&#x430;" horiz-adv-x="872"
                   d="M504 592q-11 -8 -37.5 -25t-38.5 -26.5t-28.5 -27t-23.5 -38.5t-7 -47v-127q0 -29 17 -45t42 -16q48 0 62 32t14 117v203zM369 758h-324v108q0 85 33 149t90 100t124 53.5t144 17.5t144 -17.5t124 -53.5t90 -100t33 -149v-866h-323v137h-4q-33 -71 -85.5 -111t-142.5 -40 q-107 0 -167 62.5t-60 176.5v174q0 62 25.5 111.5t66 82t89 59t97.5 49.5t89.5 47.5t66 59.5t25.5 79q0 86 -68 86q-67 0 -67 -86v-129z"/>
            <glyph unicode="&#x431;" horiz-adv-x="872"
                   d="M436 874q-67 0 -67 -81v-512q0 -82 67 -82q68 0 68 82v512q0 81 -68 81zM553 1458h221q-24 -95 -83 -149t-165 -90q-52 -18 -85.5 -35t-69.5 -49t-54 -82.5t-18 -120.5h2q9 57 74.5 106t128.5 49q171 0 247 -84t76 -249v-457q0 -104 -55.5 -176t-141.5 -103.5t-194 -31.5 t-194 31.5t-141.5 103.5t-55.5 176v457q0 110 12 198.5t36 149.5t51.5 105t68 75t74 48.5t80.5 35.5q24 9 62 22t57 20t38.5 20t28.5 30z"/>
            <glyph unicode="&#x432;" horiz-adv-x="872"
                   d="M369 524v-311h30q66 0 85.5 29t19.5 127q0 99 -18 127t-80 28h-37zM369 958v-239h37q60 0 79 23t19 100q0 71 -19.5 93.5t-78.5 22.5h-37zM45 1171h481q150 0 225.5 -71.5t75.5 -210.5q0 -104 -47.5 -167t-128.5 -83v-16q64 -23 99 -52t56 -89t21 -158q0 -158 -82.5 -241 t-222.5 -83h-477v1171z"/>
            <glyph unicode="&#x433;" horiz-adv-x="688" d="M45 1171h627v-213h-303v-958h-324v1171z"/>
            <glyph unicode="&#x434;" horiz-adv-x="909"
                   d="M137 1171h692v-958h60v-475h-287v262h-299v-262h-287v475h58q38 78 50.5 195.5t12.5 291.5v471zM522 958h-119v-340q0 -270 -57 -405h176v745z"/>
            <glyph unicode="&#x435;" horiz-adv-x="872"
                   d="M827 549h-458v-238q0 -53 17.5 -82.5t49.5 -29.5q68 0 68 112v152h323v-172q0 -158 -105 -231.5t-286 -73.5q-108 0 -194 31.5t-141.5 103.5t-55.5 176v559q0 159 101 244.5t290 85.5q82 0 149 -16.5t123 -53t87.5 -103t31.5 -157.5v-307zM369 743h135v160q0 70 -68 70 q-67 0 -67 -70v-160z"/>
            <glyph unicode="&#x436;" horiz-adv-x="1333"
                   d="M506 1171h323v-534h5l165 534h314l-187 -524l203 -647h-330l-165 612h-5v-612h-323v612h-4l-166 -612h-330l203 647l-186 524h313l166 -534h4v534z"/>
            <glyph unicode="&#x437;" horiz-adv-x="872"
                   d="M369 782h-324v74q0 91 31.5 157.5t87.5 103t123 53t149 16.5q187 0 289 -79t102 -218q0 -104 -47.5 -167t-128.5 -83v-16q94 -31 135 -90t41 -187q0 -81 -18.5 -142.5t-51.5 -102.5t-83 -67t-108 -37t-130 -11q-181 0 -286 73.5t-105 231.5v172h324v-152q0 -56 15 -84 t52 -28q32 0 50 29.5t18 82.5v68q0 91 -24 118t-93 27v195q71 0 94 19t23 67v98q0 70 -68 70q-67 0 -67 -70v-121z"/>
            <glyph unicode="&#x438;" horiz-adv-x="897"
                   d="M45 1171h303v-596h2l178 596h324v-1171h-303v647h-2l-180 -647h-322v1171z"/>
            <glyph unicode="&#x439;" horiz-adv-x="897"
                   d="M45 1171h303v-596h2l178 596h324v-1171h-303v647h-2l-180 -647h-322v1171zM172 1583h107q19 -113 182 -113q60 0 104.5 27t55.5 86h108q0 -134 -80 -203t-209 -69q-116 0 -192 73t-76 199z"/>
            <glyph unicode="&#x43a;" horiz-adv-x="872"
                   d="M369 1171v-534h4l166 534h313l-186 -524l202 -647h-329l-166 612h-4v-612h-324v1171h324z"/>
            <glyph unicode="&#x43b;" horiz-adv-x="903"
                   d="M150 1171h706v-1171h-307v958h-133v-622q0 -166 -69 -251t-197 -85h-134v213h41q55 0 74 21.5t19 84.5v852z"/>
            <glyph unicode="&#x43c;" horiz-adv-x="1128"
                   d="M45 1171h395l86 -618q17 -116 17 -211h4q0 61 22 211l86 618h428v-1171h-286v979h-2l-140 -979h-229l-143 979h-2v-979h-236v1171z"/>
            <glyph unicode="&#x43d;" horiz-adv-x="872"
                   d="M369 1171v-434h135v434h323v-1171h-323v524h-135v-524h-324v1171h324z"/>
            <glyph unicode="&#x43e;" horiz-adv-x="872"
                   d="M436 973q-67 0 -67 -82v-610q0 -82 67 -82q68 0 68 82v610q0 82 -68 82zM436 1186q189 0 290 -85.5t101 -244.5v-559q0 -104 -55.5 -176t-141.5 -103.5t-194 -31.5t-194 31.5t-141.5 103.5t-55.5 176v559q0 159 101 244.5t290 85.5z"/>
            <glyph unicode="&#x43f;" horiz-adv-x="872" d="M45 1171h782v-1171h-323v958h-135v-958h-324v1171z"/>
            <glyph unicode="&#x440;" horiz-adv-x="872"
                   d="M436 920q-30 0 -48.5 -21.5t-18.5 -58.5v-508q0 -37 18.5 -58.5t48.5 -21.5t49 21.5t19 58.5v508q0 37 -19 58.5t-49 21.5zM369 154v-416h-324v1433h324v-153h4q22 168 223 168q64 0 110.5 -25.5t72 -69.5t37 -94.5t11.5 -109.5v-647q0 -116 -54 -185t-171 -69 q-89 0 -148 44t-81 124h-4z"/>
            <glyph unicode="&#x441;" horiz-adv-x="872"
                   d="M827 758h-323v133q0 82 -68 82q-67 0 -67 -82v-610q0 -82 67 -82q68 0 68 82v182h323v-172q0 -158 -105 -231.5t-288 -73.5q-187 0 -288 80t-101 245v547q0 147 104 237.5t285 90.5q83 0 150.5 -16.5t123.5 -53.5t87.5 -103t31.5 -157v-98z"/>
            <glyph unicode="&#x442;" horiz-adv-x="790" d="M14 1171h758v-213h-217v-958h-324v958h-217v213z"/>
            <glyph unicode="&#x443;" horiz-adv-x="872"
                   d="M25 1171h327l109 -809h4l108 809h273l-262 -1234q-20 -96 -88 -147.5t-174 -51.5h-261v213h168q32 0 45 7.5t13 25.5q0 11 -8 51z"/>
            <glyph unicode="&#x444;" horiz-adv-x="1331"
                   d="M895 920q-30 0 -49 -21.5t-19 -58.5v-508q0 -37 19 -58.5t49 -21.5t49 21.5t19 58.5v508q0 37 -19 58.5t-49 21.5zM504 1458h323v-440h4q22 168 224 168q64 0 110.5 -25.5t72 -69.5t37 -94.5t11.5 -109.5v-647q0 -116 -54 -185t-171 -69q-89 0 -148.5 44t-81.5 124h-4 v-416h-323v416h-4q-22 -80 -81.5 -124t-148.5 -44q-117 0 -171 69t-54 185v647q0 59 11.5 109.5t37 94.5t72 69.5t110.5 25.5q202 0 224 -168h4v440zM436 920q-30 0 -48.5 -21.5t-18.5 -58.5v-508q0 -37 18.5 -58.5t48.5 -21.5t49 21.5t19 58.5v508q0 37 -19 58.5t-49 21.5z "/>
            <glyph unicode="&#x445;" horiz-adv-x="872"
                   d="M20 1171h334l101 -452h4l100 452h289l-191 -561l207 -610h-340l-112 498h-4l-113 -498h-287l197 610z"/>
            <glyph unicode="&#x446;" horiz-adv-x="892"
                   d="M369 1171v-958h135v958h323v-958h60v-475h-287v262h-555v1171h324z"/>
            <glyph unicode="&#x447;" horiz-adv-x="872"
                   d="M45 1171h324v-376q0 -43 12.5 -65.5t46.5 -22.5q44 0 76 12v452h323v-1171h-323v535q-52 -22 -101.5 -31.5t-138.5 -9.5q-107 0 -163 70t-56 198v409z"/>
            <glyph unicode="&#x448;" horiz-adv-x="1290"
                   d="M360 1171v-958h129v958h312v-958h129v958h311v-1171h-1192v1171h311z"/>
            <glyph unicode="&#x449;" horiz-adv-x="1314"
                   d="M360 1171v-958h129v958h312v-958h129v958h311v-958h59v-475h-286v262h-965v1171h311z"/>
            <glyph unicode="&#x44a;" horiz-adv-x="970"
                   d="M467 524v-311h31q64 0 84 29.5t20 126.5q0 98 -19 126.5t-79 28.5h-37zM467 1174v-437h135q73 0 127.5 -16t101 -55t71 -114t24.5 -183q0 -110 -24.5 -185t-71 -114t-101 -54.5t-127.5 -15.5h-459v965h-151v209h475z"/>
            <glyph unicode="&#x44b;" horiz-adv-x="1300"
                   d="M369 524v-311h30q64 0 84.5 29.5t20.5 126.5q0 98 -19 126.5t-79 28.5h-37zM45 1171h324v-434h135q73 0 127.5 -16t100.5 -55t70.5 -114t24.5 -183q0 -88 -16.5 -154.5t-44.5 -106.5t-70.5 -65t-88 -34t-103.5 -9h-459v1171zM1255 1171v-1171h-323v1171h323z"/>
            <glyph unicode="&#x44c;" horiz-adv-x="872"
                   d="M369 524v-311h30q64 0 84.5 29.5t20.5 126.5q0 98 -19 126.5t-79 28.5h-37zM45 1171h324v-434h135q73 0 127.5 -16t100.5 -55t70.5 -114t24.5 -183q0 -88 -16.5 -154.5t-44.5 -106.5t-70.5 -65t-88 -34t-103.5 -9h-459v1171z"/>
            <glyph unicode="&#x44d;" horiz-adv-x="872"
                   d="M373 782h-324v74q0 330 393 330q181 0 285 -90.5t104 -237.5v-547q0 -165 -101 -245t-288 -80q-183 0 -288 73.5t-105 231.5v172h324v-182q0 -82 67 -82q68 0 68 82v243h-119v193h119v174q0 82 -68 82q-67 0 -67 -82v-109z"/>
            <glyph unicode="&#x44e;" horiz-adv-x="1304"
                   d="M369 1171v-434h108v119q0 159 101 244.5t290 85.5t290.5 -86t101.5 -244v-559q0 -79 -32 -140t-87 -97.5t-124 -55t-149 -18.5q-108 0 -194 31.5t-141.5 103.5t-55.5 176v227h-108v-524h-324v1171h324zM868 973q-67 0 -67 -82v-610q0 -82 67 -82q68 0 68 82v610 q0 82 -68 82z"/>
            <glyph unicode="&#x44f;" horiz-adv-x="872"
                   d="M504 647v311h-31q-58 0 -81 -33t-23 -122q0 -92 22.5 -124t81.5 -32h31zM827 1171v-1171h-323v453h-45l-121 -453h-340l182 494q-64 36 -99.5 117t-35.5 202q0 102 24.5 174t70.5 111t101.5 56t127.5 17h458z"/>
            <glyph unicode="&#x451;" horiz-adv-x="872"
                   d="M827 549h-458v-238q0 -53 17.5 -82.5t49.5 -29.5q68 0 68 112v152h323v-172q0 -158 -105 -231.5t-286 -73.5q-108 0 -194 31.5t-141.5 103.5t-55.5 176v559q0 159 101 244.5t290 85.5q82 0 149 -16.5t123 -53t87.5 -103t31.5 -157.5v-307zM369 743h135v160q0 70 -68 70 q-67 0 -67 -70v-160zM721 1331h-229v252h229v-252zM381 1331h-229v252h229v-252z"/>
            <glyph unicode="&#x452;" horiz-adv-x="872"
                   d="M45 1487h324v-88h290v-164h-290v-262h4q52 160 229 160q225 0 225 -279v-901q0 -130 -56 -183t-187 -53h-226v213h43q62 0 82.5 25t20.5 106v678q0 30 -1.5 47.5t-7.5 38.5t-20.5 31t-38.5 10q-19 0 -32 -8t-20 -18t-10.5 -29.5t-4 -33.5t-0.5 -38v-739h-324v1235h-45 v164h45v88z"/>
            <glyph unicode="&#x453;" horiz-adv-x="688"
                   d="M45 1171h627v-213h-303v-958h-324v1171zM424 1290h-137l200 289h236z"/>
            <glyph unicode="&#x454;" horiz-adv-x="872"
                   d="M827 782h-323v109q0 82 -68 82q-67 0 -67 -82v-172h118v-193h-118v-245q0 -82 67 -82q68 0 68 82v182h323v-172q0 -158 -105 -231.5t-288 -73.5q-187 0 -288 80t-101 245v547q0 147 104 237.5t285 90.5q393 0 393 -330v-74z"/>
            <glyph unicode="&#x455;" horiz-adv-x="872"
                   d="M821 758h-317v127q0 88 -68 88q-67 0 -67 -88q0 -40 25 -73t65 -57t88 -48.5t96 -56t88 -70.5t65 -101t25 -139q0 -174 -103.5 -264t-305.5 -90q-80 0 -145 16t-115.5 49.5t-78.5 90.5t-28 134v187h324v-176q0 -88 67 -88q68 0 68 88q0 56 -25.5 99t-66 70.5t-89.5 52.5 t-97.5 54t-89 65t-66 95.5t-25.5 136.5q0 166 104 246t275 80q189 0 293 -73t104 -218v-137z"/>
            <glyph unicode="&#x456;" horiz-adv-x="417" d="M371 1171v-1171h-324v1171h324zM371 1251h-324v207h324v-207z"/>
            <glyph unicode="&#x457;" horiz-adv-x="417"
                   d="M371 0h-324v1171h324v-1171zM494 1331h-230v252h230v-252zM154 1331h-230v252h230v-252z"/>
            <glyph unicode="&#x458;" horiz-adv-x="417"
                   d="M47 1171h324v-1198q0 -130 -56.5 -182.5t-187.5 -52.5h-225v213h43q61 0 81.5 24.5t20.5 106.5v1089zM47 1458h324v-207h-324v207z"/>
            <glyph unicode="&#x459;" horiz-adv-x="1359"
                   d="M150 1171h706v-434h135q73 0 127.5 -16t101 -55t71 -114t24.5 -183q0 -110 -24.5 -185t-71 -114t-101 -54.5t-127.5 -15.5h-442v958h-133v-622q0 -166 -69 -251t-197 -85h-134v213h41q55 0 74 21.5t19 84.5v852zM856 524v-311h31q64 0 84 29.5t20 126.5q0 98 -19 126.5 t-79 28.5h-37z"/>
            <glyph unicode="&#x45a;" horiz-adv-x="1331"
                   d="M369 1171v-434h135v434h323v-434h136q73 0 127.5 -16t100.5 -55t70.5 -114t24.5 -183q0 -88 -16.5 -154.5t-44.5 -106.5t-70.5 -65t-88 -34t-103.5 -9h-459v524h-135v-524h-324v1171h324zM827 524v-311h31q64 0 84.5 29.5t20.5 126.5q0 98 -19.5 126.5t-79.5 28.5h-37z "/>
            <glyph unicode="&#x45b;" horiz-adv-x="872"
                   d="M45 1487h324v-88h290v-164h-290v-262h4q52 160 229 160q225 0 225 -279v-854h-323v739q0 30 -1.5 47.5t-7.5 38.5t-20.5 31t-38.5 10q-19 0 -32 -8t-20 -18t-10.5 -29.5t-4 -33.5t-0.5 -38v-739h-324v1235h-45v164h45v88z"/>
            <glyph unicode="&#x45c;" horiz-adv-x="872"
                   d="M369 1171v-534h4l166 534h313l-186 -524l202 -647h-329l-166 612h-4v-612h-324v1171h324zM532 1290h-137l201 289h235z"/>
            <glyph unicode="&#x45e;" horiz-adv-x="872"
                   d="M25 1171h327l109 -809h4l108 809h273l-262 -1234q-20 -96 -88 -147.5t-174 -51.5h-261v213h168q32 0 45 7.5t13 25.5q0 11 -8 51zM178 1583h107q19 -113 182 -113q60 0 104.5 27t55.5 86h108q0 -134 -80 -203t-209 -69q-116 0 -192 73t-76 199z"/>
            <glyph unicode="&#x45f;" horiz-adv-x="872"
                   d="M369 1171v-958h135v958h323v-1171h-299v-262h-184v262h-299v1171h324z"/>
            <glyph unicode="&#x490;" horiz-adv-x="765" d="M45 1458h471v277h238v-498h-369v-1237h-340v1458z"/>
            <glyph unicode="&#x491;" horiz-adv-x="688" d="M45 1171h442v242h185v-455h-303v-958h-324v1171z"/>
            <glyph unicode="&#x2000;" horiz-adv-x="967"/>
            <glyph unicode="&#x2001;" horiz-adv-x="1935"/>
            <glyph unicode="&#x2002;" horiz-adv-x="967"/>
            <glyph unicode="&#x2003;" horiz-adv-x="1935"/>
            <glyph unicode="&#x2004;" horiz-adv-x="645"/>
            <glyph unicode="&#x2005;" horiz-adv-x="483"/>
            <glyph unicode="&#x2006;" horiz-adv-x="322"/>
            <glyph unicode="&#x2007;" horiz-adv-x="322"/>
            <glyph unicode="&#x2008;" horiz-adv-x="241"/>
            <glyph unicode="&#x2009;" horiz-adv-x="387"/>
            <glyph unicode="&#x200a;" horiz-adv-x="107"/>
            <glyph unicode="&#x2010;" horiz-adv-x="741" d="M647 446h-553v279h553v-279z"/>
            <glyph unicode="&#x2011;" horiz-adv-x="741" d="M647 446h-553v279h553v-279z"/>
            <glyph unicode="&#x2012;" horiz-adv-x="741" d="M647 446h-553v279h553v-279z"/>
            <glyph unicode="&#x2013;" horiz-adv-x="1228" d="M94 725h1041v-279h-1041v279z"/>
            <glyph unicode="&#x2014;" horiz-adv-x="2048" d="M2048 446h-2048v279h2048v-279z"/>
            <glyph unicode="&#x2018;" horiz-adv-x="417" d="M25 1458h301l67 -514h-207z"/>
            <glyph unicode="&#x2019;" horiz-adv-x="417" d="M92 1458h301l-162 -514h-206z"/>
            <glyph unicode="&#x201a;" horiz-adv-x="417" d="M92 319h301l-162 -514h-206z"/>
            <glyph unicode="&#x201c;" horiz-adv-x="872" d="M485 1458h301l68 -514h-207zM68 1458h301l67 -514h-207z"/>
            <glyph unicode="&#x201d;" horiz-adv-x="872" d="M504 1458h301l-162 -514h-207zM86 1458h301l-162 -514h-207z"/>
            <glyph unicode="&#x201e;" horiz-adv-x="872" d="M504 319h301l-162 -514h-207zM86 319h301l-162 -514h-207z"/>
            <glyph unicode="&#x2026;" horiz-adv-x="2048"
                   d="M500 0h-318v344h318v-344zM1182 0h-318v344h318v-344zM1864 0h-318v344h318v-344z"/>
            <glyph unicode="&#x202f;" horiz-adv-x="387"/>
            <glyph unicode="&#x2039;" horiz-adv-x="417"
                   d="M387 203l-309 311v274l309 312v-295l-154 -154l154 -153v-295z"/>
            <glyph unicode="&#x203a;" horiz-adv-x="417" d="M31 203v295l153 153l-153 154v295l309 -312v-274z"/>
            <glyph unicode="&#x205f;" horiz-adv-x="483"/>
            <glyph unicode="&#x20ac;"
                   d="M872 1425v-274q-61 76 -194 76q-94 0 -146 -61t-67 -189h356l-55 -191h-317v-55q0 -47 2 -63h278l-55 -193h-207q15 -125 67.5 -183.5t145.5 -58.5q128 0 192 68v-272q-28 -23 -92.5 -39.5t-158.5 -16.5q-193 0 -305 123t-144 379h-141l55 193h68q-2 16 -2 61q0 37 2 57 h-123l55 191h82q64 510 453 510q87 0 153.5 -19t97.5 -43z"/>
            <glyph unicode="&#x2122;" horiz-adv-x="2048"
                   d="M778 1458v-184h-229v-660h-246v660h-229v184h704zM1290 1458l183 -489l182 489h319v-844h-221v553h-4l-186 -553h-181l-186 553h-4v-553h-221v844h319z"/>
            <glyph unicode="&#xe000;" horiz-adv-x="1167" d="M0 1167h1167v-1167h-1167v1167z"/>
            </font>
</defs>
</svg>
